<svg viewBox="-4.8 -4.8 57.60 57.60" id="Layer_2" data-name="Layer 2" xmlns="http://www.w3.org/2000/svg" fill="#ffffff" stroke="#ffffff" stroke-width="1.44"><g id="SVGRepo_bgCarrier" stroke-width="0"><path transform="translate(-4.8, -4.8), scale(1.7999999999999998)" d="M16,27.253494588192552C18.755564837842773,27.592879961184945,21.594728811837314,29.819164068456985,24.058526108225134,28.539311385813892C26.491885196614128,27.27527024019102,26.414614302601244,23.77054180694739,27.52846976153983,21.264875730339092C28.628567945866372,18.79015723855911,31.251223502647825,16.525528618904733,30.563502936448813,13.906084393206607C29.865082450352297,11.245885470370574,26.164938399788632,10.8270439188363,24.265774591052033,8.837665545564295C22.501796655753644,6.989894679634572,22.050931974195432,4.103523181780795,19.89590827043862,2.731754919484093C17.421759005091793,1.156849069274253,14.245562882962894,-0.3462203997813782,11.513461147959326,0.7202518848242363C8.765354649801875,1.7929716074760298,8.180724618275361,5.377183705560098,6.653261115175557,7.90100465310757C5.4041528411685595,9.964900531009759,3.501937548231414,11.774823078889419,3.365309368769097,14.183405735887346C3.232185772469041,16.530207007391812,4.950629679523135,18.46199503271888,5.933049834163581,20.597422095295144C6.912240335597628,22.725829056719057,7.1693088991660305,25.40772721550416,9.12360929645051,26.699872791168975C11.081444052798636,27.994355216600205,13.670518126410983,26.96658714051081,16,27.253494588192552" fill="#000000" strokewidth="0"></path></g><g id="SVGRepo_tracerCarrier" stroke-linecap="round" stroke-linejoin="round"></g><g id="SVGRepo_iconCarrier"><defs><style>.cls-1{fill:none;stroke:#ffffff;stroke-linecap:round;stroke-linejoin:round;}</style></defs><path class="cls-1" d="M40.5,5.5H7.5a2,2,0,0,0-2,2v33a2,2,0,0,0,2,2h33a2,2,0,0,0,2-2V7.5A2,2,0,0,0,40.5,5.5Z"></path><line class="cls-1" x1="14.95" y1="10.5" x2="14.95" y2="37.5"></line><line class="cls-1" x1="33.05" y1="37.5" x2="33.05" y2="10.5"></line><line class="cls-1" x1="14.95" y1="10.5" x2="33.05" y2="37.5"></line></g></svg>